# xmcd CD Database Entry
#
# Track frame offsets:
# 150
# 10600
# 21112
# 33707
# 46622
# 58012
# 71937
# 82562
# 96860
# 107810
#
# Disc length: 1598 seconds
#
# Revision: 1
# Processed by: cddbd v1.4b41PL1 Copyright (c) Steve Scherf et al.
# Submitted via: tcd 2.0b
#
DISCID=73063c0a
DTITLE=Ray Charles - Blues is my middle name
DYEAR=1900
DGENRE=
TTITLE0=Going down slow
TTITLE1=Now she's gone
TTITLE2=Rocking chair blues
TTITLE3=Can anyone ask for more
TTITLE4=Let's have a ball
TTITLE5=This love of mine
TTITLE6=Sitting on the top of the world
TTITLE7=Blues is my middle name
TTITLE8=I wonder who's kissing her now
TTITLE9=See see rider
EXTD=
EXTT0=
EXTT1=
EXTT2=
EXTT3=
EXTT4=
EXTT5=
EXTT6=
EXTT7=
EXTT8=
EXTT9=
PLAYORDER=
